<svg width="159" height="32" viewBox="0 0 159 32" fill="none" xmlns="http://www.w3.org/2000/svg">
<path d="M2.25799 7.90307V3.76343H24.0852V7.90307H13.5479V13.548H26.7195V17.4995H13.5479V19.2735C13.5479 22.0349 15.7865 24.2735 18.5479 24.2735H25.7787V28.9776H9.03195V17.4995H0V13.548H9.03195V7.90307H2.25799Z" fill="#FFAB6E"/>
<path d="M55.3208 1.6936L52.6865 2.8226L55.3208 7.33857L57.9552 6.20958L55.3208 1.6936Z" fill="#FFAB6E"/>
<path d="M59.2723 0L56.6379 1.12899L59.2723 5.64497L61.9066 4.51598L59.2723 0Z" fill="#FFAB6E"/>
<path d="M34.9989 18.6285L31.2356 15.806L31.4987 15.5503C35.8278 11.3414 39.712 6.69806 43.09 1.6936L47.7942 3.38709L45.9125 6.58591H54.9445L59.0841 10.7256L58.5094 11.5941C53.305 19.4584 46.5148 26.1486 38.5741 31.2356L34.6226 27.6605L36.5574 26.3383C42.7459 22.1096 48.1418 16.8247 52.4983 10.7256H43.09L34.9989 18.6285Z" fill="#FFAB6E"/>
<path d="M65.1052 9.5965V5.64502H90.5076L93.5182 7.90301L81.2875 22.2036L86.3679 27.6604L82.4165 30.8592L68.8685 17.3113L72.2555 14.4888L78.0887 19.1929L86.1798 9.5965H65.1052Z" fill="#FFAB6E"/>
<path d="M112.711 8.2793L108.948 9.59646L111.582 16.9349L115.534 15.6178L112.711 8.2793Z" fill="#FFAB6E"/>
<path d="M105.185 9.9729L101.233 11.4782L104.244 19.0049L108.195 17.6877L105.185 9.9729Z" fill="#FFAB6E"/>
<path d="M124.942 10.7255L120.238 9.22021L115.722 21.6391L105.185 27.4723L108.76 31.0474L119.109 23.3326L124.942 10.7255Z" fill="#FFAB6E"/>
<path d="M134.915 9.59643L133.786 5.64495L134.052 5.63993C140.508 5.51812 146.937 4.77127 153.249 3.40983L153.355 3.38696L155.989 6.96211L147.71 8.6556V13.7361H159V18.0639H147.71C146.104 23.0063 143.311 27.4801 139.577 31.0942L139.431 31.2355L135.291 28.413L136.123 27.7692C139.401 25.231 141.967 21.8875 143.57 18.0639H131.34V13.7361H143.57V9.03193L134.915 9.59643Z" fill="#FFAB6E"/>
</svg>
