<svg width="159" height="32" viewBox="0 0 159 32" fill="none" xmlns="http://www.w3.org/2000/svg">
<path d="M2.25799 7.90295V3.76331H24.0852V7.90295H13.5479V13.5479H26.7195V17.4994H13.5479V19.2734C13.5479 22.0348 15.7865 24.2734 18.5479 24.2734H25.7787V28.9775H9.03195V17.4994H0V13.5479H9.03195V7.90295H2.25799Z" fill="white"/>
<path d="M55.3207 1.69348L52.6864 2.82248L55.3207 7.33845L57.955 6.20946L55.3207 1.69348Z" fill="white"/>
<path d="M59.2722 0L56.6379 1.12899L59.2722 5.64497L61.9065 4.51598L59.2722 0Z" fill="white"/>
<path d="M34.9988 18.6284L31.2355 15.8059L31.4985 15.5502C35.8276 11.3413 39.7119 6.69793 43.0899 1.69348L47.7941 3.38697L45.9124 6.58579H54.9443L59.084 10.7254L58.5092 11.5939C53.3049 19.4583 46.5147 26.1484 38.5739 31.2355L34.6225 27.6603L36.5573 26.3382C42.7457 22.1094 48.1417 16.8246 52.4982 10.7254H43.0899L34.9988 18.6284Z" fill="white"/>
<path d="M65.1053 9.5965V5.64502H90.5077L93.5184 7.90301L81.2876 22.2036L86.3681 27.6604L82.4166 30.8592L68.8687 17.3113L72.2556 14.4888L78.0888 19.1929L86.1799 9.5965H65.1053Z" fill="white"/>
<path d="M112.711 8.2793L108.948 9.59646L111.582 16.9349L115.534 15.6178L112.711 8.2793Z" fill="white"/>
<path d="M105.185 9.97278L101.233 11.4781L104.244 19.0047L108.195 17.6876L105.185 9.97278Z" fill="white"/>
<path d="M124.942 10.7254L120.238 9.22009L115.722 21.639L105.185 27.4722L108.76 31.0473L119.109 23.3325L124.942 10.7254Z" fill="white"/>
<path d="M134.915 9.59643L133.786 5.64495L134.052 5.63993C140.508 5.51812 146.937 4.77127 153.249 3.40983L153.355 3.38696L155.989 6.96211L147.71 8.6556V13.7361H159V18.0639H147.71C146.104 23.0063 143.311 27.4801 139.577 31.0942L139.431 31.2355L135.291 28.413L136.123 27.7692C139.401 25.231 141.967 21.8875 143.57 18.0639H131.34V13.7361H143.57V9.03193L134.915 9.59643Z" fill="white"/>
</svg>
