<svg width="486" height="80" viewBox="0 0 486 80" fill="none" xmlns="http://www.w3.org/2000/svg">
<path d="M32.9759 31.9156V24.6265H71.4096V31.9156H52.8554V41.8554H76.0482V48.8132H52.8554V50.0159C52.8554 55.9392 57.6572 60.7409 63.5804 60.7409H74.3916V69.0241H44.9036V48.8132H29V41.8554H44.9036V31.9156H32.9759Z" fill="white"/>
<path d="M126.41 20.9819L121.771 22.9699L126.41 30.9217L131.048 28.9337L126.41 20.9819Z" fill="white"/>
<path d="M133.367 18L128.729 19.988L133.367 27.9398L138.006 25.9518L133.367 18Z" fill="white"/>
<path d="M90.6264 50.8012L83.9999 45.8313L84.4631 45.381C92.0858 37.97 98.9253 29.7939 104.873 20.9819L113.157 23.9639L109.843 29.5964H125.747L133.036 36.8855L132.024 38.4148C122.86 52.2625 110.904 64.0426 96.9216 73L89.9637 66.7048L93.3707 64.3767C104.267 56.9307 113.769 47.625 121.44 36.8855H104.873L90.6264 50.8012Z" fill="white"/>
<path d="M143.639 34.8977V27.9398H188.367L193.669 31.9157L172.133 57.0964L181.078 66.7049L174.12 72.3374L150.265 48.482L156.229 43.5121L166.5 51.7952L180.747 34.8977H143.639Z" fill="white"/>
<path d="M227.464 32.5782L220.837 34.8975L225.476 47.8192L232.434 45.4999L227.464 32.5782Z" fill="white"/>
<path d="M214.211 35.5603L207.253 38.2109L212.554 51.4639L219.512 49.1446L214.211 35.5603Z" fill="white"/>
<path d="M249 36.8855L240.717 34.2349L232.765 56.1023L214.211 66.3734L220.506 72.6686L238.729 59.0843L249 36.8855Z" fill="white"/>
<path d="M266.56 34.8975L264.572 27.9396L264.849 27.9344C276.344 27.7175 287.791 26.3878 299.03 23.9637L303.669 30.2589L289.09 33.2409V42.1866H308.97V49.8071H289.09C286.262 58.5099 281.345 66.3874 274.769 72.7511L274.512 72.9999L267.223 68.03L268.687 66.8964C274.46 62.4271 278.978 56.5398 281.801 49.8071H260.265V42.1866H281.801V33.9035L266.56 34.8975Z" fill="white"/>
<path d="M3.26705 28.3226V23.7698C3.26705 22.477 3.51998 21.1562 4.02584 19.8072C4.53171 18.4582 5.19917 17.1865 6.02823 15.9921C6.85728 14.7977 7.7566 13.8 8.72617 12.9991L12.6888 15.3387C11.9019 16.5753 11.2555 17.868 10.7496 19.217C10.2578 20.566 10.0119 22.0695 10.0119 23.7276V28.3226H3.26705ZM13.9113 28.3226V23.7698C13.9113 22.477 14.1642 21.1562 14.6701 19.8072C15.176 18.4582 15.8434 17.1865 16.6725 15.9921C17.5015 14.7977 18.4008 13.8 19.3704 12.9991L23.333 15.3387C22.5461 16.5753 21.8997 17.868 21.3939 19.217C20.9021 20.566 20.6562 22.0695 20.6562 23.7276V28.3226H13.9113Z" fill="white"/>
<path d="M323.108 14.8328V19.3856C323.108 20.6784 322.855 21.9993 322.349 23.3482C321.857 24.6832 321.197 25.9478 320.368 27.1422C319.539 28.3226 318.632 29.3273 317.649 30.1563L313.686 27.8167C314.389 26.7066 315.007 25.4771 315.541 24.1281C316.089 22.7791 316.363 21.2124 316.363 19.4278V14.8328H323.108ZM333.71 14.8328V19.3856C333.71 20.6784 333.457 21.9993 332.951 23.3482C332.459 24.6832 331.799 25.9478 330.97 27.1422C330.141 28.3226 329.228 29.3273 328.23 30.1563L324.267 27.8167C324.984 26.7066 325.609 25.4771 326.143 24.1281C326.691 22.7791 326.965 21.2124 326.965 19.4278V14.8328H333.71Z" fill="white"/>
<path d="M344.343 60.0633C345.26 59.9104 346.667 59.5434 347.585 59.2376C349.695 58.6259 354.863 56.8521 358.564 56.8521C363.427 56.8521 366.668 59.7269 366.668 64.3756C366.668 69.8805 361.775 73.6728 352.08 74.2539L350.459 70.4922C357.432 70.3087 362.601 68.4431 362.601 64.2838C362.601 62.0207 360.888 60.3997 358.197 60.3997C354.649 60.3997 348.563 62.9381 345.933 64.0391L344.343 60.0633ZM371.231 51.9894C372.424 51.9588 373.647 51.8976 374.228 51.8365C376.797 51.5918 381.813 51.1636 387.44 50.6743C390.59 50.3991 393.924 50.2156 396.095 50.1238L396.126 54.069C394.475 54.069 391.844 54.0996 390.193 54.4666C386.523 55.4453 383.74 59.4211 383.74 63.0299C383.74 68.0761 388.45 69.8805 393.618 70.1558L392.211 74.3457C385.789 73.9481 379.733 70.4922 379.733 63.8556C379.733 59.4517 382.211 55.9958 384.29 54.436C381.416 54.7419 375.177 55.3841 371.629 56.1793L371.231 51.9894ZM402.151 52.968C403.466 53.121 405.117 53.1821 406.218 53.1821C410.011 53.1821 414.139 52.5399 417.106 51.5918L417.198 55.1395C414.568 55.8734 410.164 56.6686 406.249 56.638C405.026 56.638 403.741 56.6074 402.426 56.5463L402.151 52.968ZM414.048 48.3806C413.65 50.0015 412.916 52.9986 412.09 55.5982C410.684 60.0022 407.931 65.6906 405.332 69.2994L401.631 67.4033C404.383 64.0391 407.136 58.6871 408.329 55.3841C409.063 53.1821 409.736 50.3379 409.827 47.983L414.048 48.3806ZM421.235 57.9225C421.143 59.207 421.174 60.4915 421.204 61.8372C421.265 63.6416 421.541 68.1984 421.541 69.9111C421.541 72.7553 420.011 74.9879 415.638 74.9879C411.846 74.9879 408.849 73.2752 408.849 69.9111C408.849 66.9445 411.356 64.6202 415.607 64.6202C420.96 64.6202 425.18 67.3115 427.718 69.6053L425.7 72.9083C423.498 70.8592 420.011 67.7091 415.393 67.7091C413.62 67.7091 412.457 68.4737 412.457 69.5441C412.457 70.6757 413.436 71.4708 415.118 71.4708C417.198 71.4708 417.871 70.3087 417.871 68.596C417.871 66.761 417.534 61.1337 417.381 57.9225H421.235ZM426.495 59.5434C424.721 58.106 421.235 56.1181 419.125 55.17L421.112 52.1729C423.314 53.121 427.076 55.17 428.666 56.3016L426.495 59.5434ZM443.897 51.6224C447.659 52.1423 453.775 51.9894 457.048 51.5918V55.537C453.316 55.904 447.75 55.904 443.927 55.537L443.897 51.6224ZM446.344 64.6814C446.099 65.7212 445.977 66.4552 445.977 67.2504C445.977 68.6266 447.169 69.4524 450.289 69.4524C453.011 69.4524 455.274 69.2077 457.935 68.6266L458.026 72.7553C456.038 73.1529 453.561 73.367 450.105 73.367C444.845 73.367 442.307 71.4708 442.307 68.3514C442.307 67.128 442.49 65.9353 442.857 64.3756L446.344 64.6814ZM439.187 49.5733C438.973 50.2156 438.575 51.7753 438.453 52.3258C438.025 54.3443 436.954 60.4609 436.954 63.5192C436.954 64.1309 436.985 64.8955 437.077 65.5071C437.536 64.4673 438.025 63.4275 438.484 62.3877L440.38 63.8862C439.493 66.4552 438.484 69.7582 438.178 71.3791C438.086 71.8378 437.994 72.5107 437.994 72.8165C438.025 73.1529 438.025 73.6728 438.055 74.101L434.538 74.3151C433.927 72.2354 433.346 68.5043 433.346 64.345C433.346 59.7269 434.263 54.589 434.6 52.2035C434.722 51.3777 434.875 50.2156 434.905 49.2369L439.187 49.5733Z" fill="white"/>
<path d="M486 51.4586C486.002 49.3768 485.316 47.3525 484.05 45.7003C482.783 44.0482 481.006 42.8605 478.995 42.3218C476.984 41.7831 474.852 41.9236 472.929 42.7214C471.006 43.5192 469.401 44.9297 468.362 46.7338C468.004 47.3542 467.907 48.0915 468.092 48.7834C468.278 49.4753 468.731 50.0652 469.351 50.4232C469.972 50.7812 470.709 50.8781 471.401 50.6925C472.093 50.507 472.682 50.0541 473.04 49.4337C473.397 48.8182 473.909 48.3072 474.525 47.9518C475.141 47.5964 475.839 47.4091 476.55 47.4088C477.624 47.4088 478.655 47.8354 479.414 48.5949C480.174 49.3544 480.6 50.3845 480.6 51.4586C480.6 52.5327 480.174 53.5628 479.414 54.3223C478.655 55.0818 477.624 55.5085 476.55 55.5085H476.542C476.368 55.526 476.196 55.5612 476.029 55.6138C475.848 55.6322 475.669 55.6684 475.495 55.7217C475.346 55.8027 475.206 55.8976 475.076 56.0052C474.921 56.0898 474.775 56.1893 474.639 56.3022C474.517 56.4474 474.412 56.6048 474.323 56.772C474.224 56.8936 474.137 57.0237 474.061 57.1608C474.002 57.3469 473.963 57.5388 473.945 57.7332C473.898 57.8882 473.867 58.0473 473.85 58.2084V60.9083L473.856 60.938V62.2636C473.857 62.9787 474.142 63.6641 474.649 64.1692C475.155 64.6744 475.841 64.9581 476.556 64.9581H476.564C476.918 64.9574 477.269 64.8869 477.597 64.7505C477.924 64.6142 478.221 64.4147 478.471 64.1635C478.722 63.9123 478.92 63.6143 479.055 63.2864C479.19 62.9586 479.259 62.6074 479.258 62.2528L479.253 60.4655C481.196 59.8883 482.901 58.7006 484.117 57.0783C485.332 55.4561 485.992 53.4855 486 51.4586ZM474.652 69.7909C474.273 70.1669 474.014 70.6469 473.908 71.1702C473.801 71.6935 473.853 72.2365 474.055 72.7307C474.257 73.2249 474.601 73.648 475.044 73.9465C475.487 74.245 476.008 74.4055 476.542 74.4078C477.258 74.4016 477.944 74.1214 478.459 73.6248C478.96 73.1126 479.241 72.4245 479.241 71.7079C479.241 70.9912 478.96 70.3031 478.459 69.7909C477.942 69.3093 477.262 69.0414 476.556 69.0414C475.849 69.0414 475.169 69.3093 474.652 69.7909Z" fill="white"/>
</svg>
